<svg viewBox="0 0 214 220" color="#eb5757" fill="none" xmlns="http://www.w3.org/2000/svg">
<g clip-path="url(#clip0_4_162)">
<path d="M56.4727 179.269L58.4929 178.781L60.5563 176.114L61.9304 177.187L55.2578 185.731L53.8933 184.659L57.084 180.564L57.0167 180.555L54.873 181.164L50.6975 182.2L49.1201 180.963L54.7413 179.569L55.696 172.337L57.2701 173.525L56.4727 179.269Z" fill="#EB5757"/>
<path d="M43.7513 177.481C43.8624 177.574 43.954 177.688 44.021 177.816C44.088 177.944 44.129 178.084 44.1417 178.228C44.1423 178.337 44.1192 178.445 44.0741 178.544C44.0289 178.643 43.9628 178.731 43.8802 178.801L43.6671 179.008C43.5916 179.086 43.5014 179.148 43.4018 179.19C43.3021 179.233 43.1951 179.255 43.0869 179.255C42.8009 179.211 42.5417 179.061 42.3599 178.836C42.2489 178.743 42.1572 178.63 42.0902 178.501C42.0233 178.373 41.9823 178.233 41.9696 178.089C41.9695 177.981 41.9918 177.874 42.0351 177.775C42.0785 177.676 42.1419 177.587 42.2214 177.515L42.4346 177.308C42.5926 177.153 42.8037 177.065 43.0244 177.062C43.3104 177.106 43.5696 177.256 43.7513 177.481V177.481ZM41.6027 175.238C41.8199 175.431 41.9588 175.697 41.993 175.985C41.9848 176.203 41.8909 176.409 41.7316 176.558L41.5184 176.765C41.4417 176.844 41.3499 176.906 41.2485 176.948C41.1472 176.991 41.0384 177.012 40.9286 177.011C40.6433 176.965 40.3847 176.816 40.2017 176.591C40.0906 176.499 39.999 176.385 39.932 176.257C39.865 176.129 39.824 175.989 39.8113 175.844C39.8132 175.736 39.8373 175.629 39.8823 175.531C39.9273 175.432 39.9922 175.344 40.0728 175.271L40.2859 175.064C40.3614 174.987 40.4516 174.925 40.5512 174.883C40.6509 174.84 40.7579 174.818 40.8661 174.818C41.1521 174.867 41.4101 175.02 41.5918 175.247L41.6027 175.238ZM51.4793 167.833C51.9171 168.265 52.2459 168.795 52.4388 169.38C52.6038 169.916 52.6296 170.486 52.5136 171.036C52.3745 171.659 52.1172 172.251 51.7556 172.777C51.307 173.437 50.7872 174.045 50.2057 174.591C49.6433 175.152 49.0202 175.648 48.348 176.07C47.8142 176.436 47.2118 176.69 46.5773 176.816C46.0237 176.918 45.453 176.873 44.9223 176.686C44.3529 176.459 43.8382 176.114 43.4125 175.672C42.9869 175.231 42.66 174.704 42.4536 174.126C42.2907 173.589 42.2649 173.02 42.3788 172.47C42.526 171.848 42.7862 171.258 43.1465 170.73C44.0454 169.419 45.1901 168.296 46.5168 167.422C47.0523 167.059 47.654 166.806 48.2875 166.676C48.8378 166.574 49.4054 166.618 49.9329 166.805C50.5208 167.021 51.0476 167.377 51.4684 167.841L51.4793 167.833ZM50.4489 168.823C50.2392 168.568 49.9603 168.378 49.6458 168.278C49.3312 168.177 48.9943 168.17 48.6755 168.256C47.896 168.523 47.1923 168.975 46.6241 169.572L45.3127 170.839C44.6958 171.382 44.2249 172.071 43.9431 172.843C43.8432 173.159 43.8379 173.497 43.928 173.815C44.0181 174.134 44.1996 174.419 44.4499 174.634C44.6576 174.892 44.9356 175.084 45.2503 175.187C45.5649 175.289 45.9025 175.298 46.222 175.211C47.0001 174.952 47.7015 174.503 48.2625 173.903L49.5848 172.628C50.2004 172.083 50.6739 171.395 50.964 170.625C51.056 170.307 51.0554 169.969 50.9622 169.651C50.869 169.334 50.6871 169.049 50.438 168.832L50.4489 168.823Z" fill="#EB5757"/>
<path d="M44.6988 159.785C45.2028 160.431 45.5454 161.189 45.6981 161.994C45.8114 162.679 45.769 163.38 45.574 164.045L44.0451 163.775C44.2019 163.219 44.2389 162.636 44.1534 162.065C44.0591 161.525 43.8381 161.016 43.5086 160.579C43.2029 160.102 42.7418 159.747 42.2038 159.574C41.9567 159.521 41.7009 159.525 41.4556 159.586C41.2104 159.647 40.9822 159.763 40.7882 159.926C40.6207 160.033 40.4774 160.174 40.3679 160.34C40.2583 160.506 40.1849 160.694 40.1524 160.89C40.1358 161.398 40.2627 161.9 40.5185 162.339L41.0642 163.391C41.277 163.796 41.424 164.232 41.4999 164.683C41.5508 165.05 41.5314 165.423 41.4428 165.783C41.3612 166.116 41.2134 166.43 41.0081 166.705C40.7974 166.981 40.5477 167.225 40.267 167.43C39.9279 167.712 39.5279 167.911 39.0988 168.01C38.6697 168.11 38.2233 168.108 37.7952 168.005C36.8676 167.701 36.072 167.087 35.5407 166.267C35.0825 165.669 34.7537 164.982 34.575 164.249C34.4364 163.633 34.4571 162.991 34.6352 162.386L36.1634 162.587C36.0483 163.038 36.0196 163.506 36.079 163.967C36.1636 164.485 36.3787 164.972 36.7039 165.382C36.978 165.829 37.402 166.162 37.8997 166.324C38.1206 166.376 38.3507 166.376 38.5715 166.324C38.7924 166.271 38.998 166.168 39.1718 166.022C39.3299 165.921 39.466 165.79 39.5721 165.636C39.6782 165.481 39.752 165.307 39.7891 165.123C39.8054 164.609 39.672 164.101 39.4051 163.662L38.8979 162.615C38.4954 161.905 38.3557 161.074 38.5033 160.271C38.6827 159.578 39.1103 158.975 39.7047 158.578C40.0779 158.299 40.5035 158.098 40.956 157.988C41.3797 157.881 41.8228 157.876 42.2489 157.973C42.7103 158.092 43.1444 158.299 43.5277 158.583C43.978 158.92 44.3732 159.326 44.6988 159.785V159.785Z" fill="#EB5757"/>
<path d="M36.9705 147.361L40.6553 154.265L39.2972 154.997L29.6933 153.67L32.272 158.508L30.9875 159.2L27.5068 152.676L28.8541 151.953L38.4593 153.27L35.6668 148.052L36.9705 147.361Z" fill="#EB5757"/>
<path d="M23.7058 146.727C23.7721 146.856 23.8119 146.997 23.8231 147.141C23.8342 147.286 23.8165 147.431 23.7708 147.568C23.7237 147.667 23.6573 147.754 23.5756 147.826C23.4939 147.898 23.3985 147.952 23.2952 147.986L23.0179 148.086C22.9173 148.129 22.8087 148.15 22.6994 148.147C22.5901 148.145 22.4826 148.119 22.3842 148.071C22.1565 147.899 21.9832 147.665 21.885 147.396C21.7869 147.128 21.7681 146.837 21.831 146.558C21.8777 146.458 21.944 146.369 22.0259 146.296C22.1079 146.222 22.2038 146.166 22.3079 146.131L22.5852 146.031C22.7904 145.953 23.0176 145.958 23.2188 146.046C23.4613 146.203 23.6353 146.446 23.7058 146.727V146.727ZM34.6574 141.031C34.8852 141.601 34.9748 142.217 34.9188 142.829C34.8517 143.386 34.647 143.918 34.3233 144.376C33.9388 144.887 33.4636 145.323 32.9216 145.661C32.2626 146.083 31.5606 146.434 30.8277 146.707C30.0856 146.99 29.3147 147.191 28.5289 147.305C27.8817 147.411 27.22 147.387 26.5824 147.234C26.0387 147.102 25.5388 146.83 25.1317 146.445C24.7047 146.006 24.3745 145.483 24.1623 144.908C23.9502 144.333 23.8608 143.72 23.9 143.108C23.9656 142.549 24.1741 142.017 24.5051 141.562C24.8817 141.044 25.3584 140.607 25.9068 140.277C26.5787 139.85 27.2974 139.501 28.0488 139.237C28.7908 138.951 29.5622 138.747 30.3489 138.63C30.9964 138.53 31.6571 138.557 32.2941 138.71C32.8378 138.843 33.3377 139.115 33.7448 139.5C34.1704 139.927 34.4839 140.453 34.6574 141.031V141.031ZM22.6431 143.814C22.7701 144.073 22.7904 144.371 22.6997 144.645C22.653 144.744 22.5868 144.834 22.5048 144.907C22.4228 144.98 22.3269 145.036 22.2228 145.072L21.9455 145.172C21.8445 145.213 21.7361 145.233 21.6271 145.231C21.5181 145.228 21.4108 145.203 21.3119 145.157C21.0689 145.004 20.894 144.764 20.8236 144.485C20.7579 144.356 20.7183 144.215 20.7072 144.071C20.696 143.927 20.7135 143.781 20.7586 143.644C20.8053 143.544 20.8716 143.455 20.9535 143.382C21.0355 143.308 21.1314 143.252 21.2355 143.217L21.5128 143.116C21.6138 143.075 21.7222 143.055 21.8312 143.058C21.9402 143.061 22.0475 143.086 22.1465 143.131C22.3902 143.29 22.5669 143.533 22.6431 143.814V143.814ZM33.3215 141.521C33.2348 141.201 33.0572 140.913 32.8102 140.693C32.5633 140.472 32.2576 140.328 31.9305 140.279C31.1096 140.206 30.2834 140.336 29.5239 140.657L27.8069 141.292C27.0265 141.534 26.3197 141.97 25.7523 142.559C25.5515 142.819 25.4198 143.126 25.3695 143.45C25.3192 143.775 25.3519 144.107 25.4645 144.416C25.5772 144.724 25.7661 144.999 26.0137 145.214C26.2612 145.43 26.5592 145.579 26.8799 145.647C27.6965 145.719 28.5185 145.593 29.2757 145.278L31.0036 144.634C31.7861 144.391 32.4957 143.956 33.0678 143.368C33.2809 143.116 33.4179 142.808 33.4628 142.481C33.5077 142.154 33.4587 141.821 33.3215 141.521V141.521Z" fill="#EB5757"/>
<path d="M23.7762 134.49L23.7584 134.625L31.904 132.849L32.2253 134.342L21.6443 136.638L21.1705 134.45L28.6613 129.56L28.6778 129.435L20.5334 131.201L20.2121 129.709L30.8015 127.423L31.2753 129.612L23.7762 134.49Z" fill="#EB5757"/>
<path d="M18.9909 118.144L26.8912 117.56C27.3244 117.53 27.7592 117.587 28.1696 117.729C28.552 117.852 28.9021 118.059 29.1947 118.335C29.5007 118.636 29.7363 119.002 29.8845 119.406C30.0696 119.835 30.1779 120.294 30.2044 120.761C30.3076 121.577 30.1152 122.403 29.6623 123.089C29.1918 123.708 28.5227 124.146 27.7678 124.328L27.3163 122.711C27.7148 122.598 28.0788 122.386 28.3754 122.096C28.6412 121.743 28.7694 121.305 28.7358 120.864C28.7021 120.423 28.5091 120.01 28.1928 119.701C27.7759 119.418 27.2675 119.302 26.7689 119.376L20.547 119.838L20.822 123.607L19.3614 123.708L18.9909 118.144Z" fill="#EB5757"/>
<path d="M19.0492 110.814L25.6987 111.26C26.1408 111.319 26.5534 111.305 26.9154 111.303C27.234 111.306 27.5502 111.248 27.8474 111.132C28.1067 111.034 28.3265 110.853 28.4728 110.617C28.6432 110.307 28.7361 109.959 28.7433 109.605C28.7766 109.265 28.7279 108.923 28.6013 108.606C28.4847 108.355 28.294 108.145 28.0548 108.005C27.7633 107.849 27.4433 107.754 27.114 107.724C26.7488 107.676 26.3451 107.623 25.9126 107.566L19.2631 107.119L19.3753 105.38L25.705 105.804C26.3866 105.845 27.0643 105.934 27.7331 106.072C28.245 106.169 28.7285 106.38 29.1477 106.69C29.5353 106.977 29.8241 107.378 29.9741 107.837C30.1463 108.443 30.2054 109.075 30.1485 109.702C30.1298 110.33 29.9851 110.947 29.723 111.517C29.5203 111.947 29.1935 112.307 28.7849 112.549C28.3232 112.796 27.8139 112.939 27.2919 112.97C26.6113 113.018 25.9282 113.019 25.2475 112.974L18.9177 112.55L19.0492 110.814ZM17.8469 110.439C17.8606 110.731 17.7597 111.017 17.5658 111.235C17.4831 111.306 17.3873 111.359 17.2838 111.393C17.1804 111.426 17.0714 111.439 16.9631 111.43L16.6652 111.39C16.4476 111.375 16.2437 111.278 16.0947 111.119C15.9612 110.865 15.9006 110.579 15.9194 110.293C15.9382 110.007 16.0357 109.731 16.2012 109.497C16.283 109.426 16.3788 109.373 16.4824 109.341C16.586 109.309 16.6951 109.299 16.8026 109.312L17.1006 109.351C17.2093 109.354 17.3161 109.38 17.4143 109.427C17.5125 109.474 17.5999 109.54 17.6711 109.622C17.8349 109.861 17.8981 110.154 17.8469 110.439V110.439ZM18.0505 107.341C18.0578 107.484 18.0368 107.627 17.9888 107.762C17.9408 107.897 17.8667 108.021 17.7707 108.127C17.6893 108.199 17.5936 108.254 17.4898 108.288C17.3861 108.321 17.2765 108.333 17.168 108.322L16.8701 108.282C16.7614 108.279 16.6546 108.253 16.5564 108.207C16.4582 108.16 16.3708 108.093 16.2996 108.011C16.1668 107.759 16.1064 107.475 16.1249 107.19C16.1435 106.905 16.2404 106.632 16.4049 106.399C16.4876 106.328 16.5834 106.274 16.6868 106.241C16.7903 106.208 16.8993 106.195 17.0076 106.204L17.3055 106.243C17.4138 106.249 17.5199 106.275 17.6178 106.322C17.7157 106.368 17.8034 106.434 17.876 106.514C18.0409 106.756 18.1037 107.053 18.0505 107.341V107.341Z" fill="#EB5757"/>
<path d="M26.4483 98.5446L27.7813 100.151L31.0655 100.829L30.713 102.537L20.1074 100.353L20.4599 98.6456L25.5346 99.6878L25.5448 99.6107L24.0521 97.9539L21.2809 94.649L21.6857 92.694L25.4255 97.1065L32.32 94.7346L31.9152 96.6896L26.4483 98.5446Z" fill="#EB5757"/>
<path d="M39.701 76.8986L36.7506 76.2838L35.1919 79.3503L37.373 81.4213L36.5598 82.9892L28.4308 75.1561L29.5306 73.0479L40.5918 75.2625L39.701 76.8986ZM30.5096 74.8917L30.4463 75.0009L34.0345 78.4137L35.3389 75.9407L30.5096 74.8917Z" fill="#EB5757"/>
<path d="M44.6942 54.7795L51.4776 61.2495L50.2757 62.5016L43.4924 56.0316L41.1514 58.5049L40.0919 57.4931L45.9745 51.304L47.0353 52.3062L44.6942 54.7795Z" fill="#EB5757"/>
<path d="M60.698 53.1106L58.2513 51.3474L55.5518 53.4991L56.7214 56.2693L55.3342 57.3696L51.0831 46.9036L52.9408 45.4245L62.153 51.9409L60.698 53.1106ZM53.1109 47.5435L53.0225 47.6201L54.925 52.1721L57.1105 50.4326L53.1109 47.5435ZM51.6454 45.4592L50.5155 45.7216L49.942 42.6577L51.5235 42.3081L51.6454 45.4592Z" fill="#EB5757"/>
<path d="M66.8008 43.0317L65.2191 40.1972L65.1129 40.2616L66.0737 46.1687L61.3691 42.4714L61.2628 42.5357L62.9277 45.3321L65.5547 49.8035L64.2358 50.6091L58.7308 41.2707L60.5652 40.1903L64.1778 43.0479L64.2732 42.9919L63.5348 38.4367L65.2546 37.4098L70.7488 46.7565L69.4298 47.5621L66.8008 43.0317Z" fill="#EB5757"/>
<path d="M77.0803 44.0556C76.5185 44.3015 75.9081 44.4153 75.2957 44.3882C74.7344 44.345 74.1935 44.159 73.7242 43.8477C73.1967 43.4897 72.7424 43.034 72.3857 42.5051C71.938 41.8449 71.5624 41.1385 71.2655 40.3978C70.9529 39.6685 70.7255 38.9053 70.5878 38.1236C70.4658 37.4958 70.4614 36.8507 70.5749 36.2213C70.6914 35.6724 70.9403 35.1603 71.2998 34.7298C71.7195 34.2828 72.2288 33.9297 72.7942 33.6936C73.3596 33.4576 73.9684 33.344 74.5806 33.3603C75.1419 33.4034 75.6828 33.5895 76.1521 33.9008C76.6796 34.2588 77.134 34.7145 77.4907 35.2434C78.3713 36.5744 78.9882 38.0628 79.3078 39.6274C79.4298 40.2552 79.4342 40.9003 79.3207 41.5298C79.2041 42.0787 78.9552 42.5907 78.5957 43.0212C78.176 43.4774 77.6576 43.8313 77.0803 44.0556V44.0556ZM76.5318 42.7292C76.8446 42.627 77.1212 42.4365 77.3285 42.1805C77.5358 41.9246 77.6649 41.6141 77.7001 41.2865C77.7406 40.4611 77.5771 39.6386 77.2241 38.8919L76.5279 37.2031C76.2493 36.4299 75.7826 35.7386 75.17 35.1918C74.9022 35.002 74.5905 34.8835 74.2644 34.8473C73.9382 34.8111 73.6082 34.8584 73.3052 34.9848C73.0022 35.1113 72.7361 35.3126 72.5319 35.5701C72.3278 35.8276 72.1921 36.1327 72.1377 36.457C72.0941 37.2782 72.2548 38.0972 72.6054 38.8406L73.31 40.5403C73.5886 41.3135 74.0553 42.0048 74.6678 42.5516C74.9279 42.7589 75.2425 42.886 75.5734 42.9175C75.9043 42.949 76.2372 42.8836 76.5318 42.7292V42.7292Z" fill="#EB5757"/>
<path d="M88.6452 38.5284L88.5394 38.5144C88.5054 38.7498 88.4519 38.982 88.3794 39.2085C88.303 39.4382 88.1919 39.6548 88.0501 39.8508C87.8873 40.0613 87.6914 40.2439 87.4702 40.3915C87.206 40.561 86.9153 40.6849 86.6101 40.758C86.1144 40.9112 85.5857 40.9215 85.0846 40.7877C84.5834 40.654 84.13 40.3816 83.7763 40.0018C82.8405 38.9433 82.2008 37.6556 81.922 36.2693C81.4569 34.8673 81.4145 33.359 81.8002 31.9326C81.9943 31.3803 82.3299 30.8887 82.7733 30.507C83.2167 30.1254 83.7524 29.8671 84.3267 29.7581C84.7809 29.6285 85.254 29.5783 85.7251 29.6096C86.1177 29.6454 86.501 29.7491 86.8582 29.916C87.192 30.0763 87.4943 30.2954 87.7507 30.5628C88.0165 30.8293 88.2497 31.1265 88.4455 31.4481L87.0645 32.3533C86.9286 32.1495 86.7814 31.9534 86.6237 31.766C86.4766 31.5929 86.3056 31.4416 86.1158 31.3169C85.9266 31.1952 85.7143 31.1138 85.4922 31.0778C85.2304 31.042 84.9639 31.0637 84.7113 31.1413C84.3886 31.2003 84.0893 31.3503 83.8485 31.5736C83.6077 31.7968 83.4354 32.0842 83.3518 32.402C83.1792 33.2063 83.2171 34.0416 83.462 34.8266L83.8962 36.5005C84.0043 36.9462 84.1567 37.3798 84.3512 37.795C84.5005 38.1435 84.7099 38.463 84.9698 38.7388C85.2041 38.9945 85.507 39.1771 85.8423 39.2648C86.1775 39.3525 86.531 39.3416 86.8603 39.2333C87.1246 39.182 87.3743 39.0728 87.5914 38.9135C87.8086 38.7541 87.9879 38.5486 88.1164 38.3116C88.3524 37.8359 88.3968 37.2875 88.2403 36.78L87.9933 35.8363L85.968 36.3625L85.6355 35.1038L89.1909 34.1722L90.5946 39.5401L89.0644 39.9455L88.6452 38.5284Z" fill="#EB5757"/>
<path d="M99.9985 38.2342L98.8506 35.4473L95.4253 35.8376L94.9435 38.8209L93.1863 39.02L95.0863 27.8866L97.4501 27.6108L101.84 37.9875L99.9985 38.2342ZM96.4879 29.4922L96.3726 29.477L95.5922 34.3509L98.3628 34.0309L96.4879 29.4922Z" fill="#EB5757"/>
<path d="M109.219 28.6845L108.96 38.0555L107.225 38.0126L107.484 28.6416L104.092 28.5563L104.129 27.0916L112.658 27.3063L112.622 28.7614L109.219 28.6845Z" fill="#EB5757"/>
<path d="M121.154 39.4693L120.843 36.4891L117.45 35.8942L116.114 38.608L114.375 38.3L119.368 28.1824L121.709 28.5992L122.935 39.8317L121.154 39.4693ZM120.29 30.0872L120.165 30.0707L118.023 34.5199L120.774 35.0105L120.29 30.0872ZM120.873 27.5973L119.935 26.9248L121.811 24.4195L123.122 25.3763L120.873 27.5973Z" fill="#EB5757"/>
<path d="M128.908 41.6197C128.116 41.4063 127.388 41.0042 126.785 40.4478C126.287 39.9668 125.904 39.3806 125.661 38.732L127.045 38.0329C127.253 38.5715 127.572 39.0606 127.98 39.4691C128.38 39.8447 128.863 40.12 129.389 40.2724C129.916 40.475 130.498 40.4823 131.03 40.293C131.258 40.1875 131.461 40.032 131.622 39.8379C131.783 39.6439 131.898 39.4162 131.96 39.1716C132.03 38.9847 132.059 38.7851 132.047 38.5859C132.034 38.3867 131.98 38.1925 131.888 38.0158C131.603 37.598 131.205 37.2702 130.741 37.0709L129.666 36.5469C129.251 36.3507 128.873 36.0854 128.547 35.7624C128.281 35.508 128.072 35.1999 127.933 34.8583C127.797 34.5414 127.732 34.1984 127.743 33.8535C127.741 33.5055 127.786 33.1587 127.879 32.8232C127.983 32.3953 128.185 31.9974 128.469 31.6609C128.753 31.3243 129.11 31.0583 129.514 30.8837C130.441 30.5734 131.446 30.5886 132.364 30.9268C133.087 31.1333 133.76 31.489 134.338 31.9712C134.819 32.3799 135.184 32.9078 135.398 33.5022L134.042 34.2148C133.863 33.7882 133.606 33.3988 133.284 33.0665C132.908 32.7004 132.445 32.4368 131.938 32.3009C131.451 32.1124 130.915 32.0969 130.418 32.2571C130.21 32.3522 130.026 32.4927 129.88 32.6683C129.733 32.8439 129.627 33.0501 129.57 33.2718C129.506 33.4545 129.479 33.6481 129.49 33.8414C129.502 34.0347 129.552 34.2237 129.637 34.3975C129.934 34.8143 130.342 35.1395 130.813 35.3366L131.857 35.876C132.613 36.2026 133.229 36.7873 133.595 37.526C133.864 38.1809 133.886 38.9117 133.656 39.5817C133.525 40.0294 133.307 40.4468 133.015 40.8098C132.723 41.153 132.352 41.42 131.934 41.5881C131.496 41.7735 131.024 41.8679 130.548 41.8656C129.992 41.8698 129.439 41.7868 128.908 41.6197Z" fill="#EB5757"/>
<path d="M143.75 37.201L139.756 45.6772L138.191 44.9319L142.187 36.446L139.112 34.9919L139.736 33.6733L147.45 37.3172L146.826 38.6358L143.75 37.201Z" fill="#EB5757"/>
<path d="M158.583 58.6164L159.878 55.8481L157.297 53.548L154.765 55.1731L153.44 54.0186L162.954 47.956L164.705 49.5097L160.006 59.8426L158.583 58.6164ZM162.705 50.1373L162.608 50.056L158.477 52.7535L160.571 54.5974L162.705 50.1373Z" fill="#EB5757"/>
<path d="M170.568 73.3951C170.212 72.9187 169.985 72.3583 169.909 71.7681C169.832 71.1779 169.909 70.5779 170.132 70.0262C170.777 68.7215 171.799 67.6411 173.065 66.9255C174.23 66.0518 175.633 65.5536 177.087 65.497C177.68 65.5194 178.258 65.6952 178.763 66.0075C179.269 66.3197 179.685 66.7577 179.971 67.2788C180.236 67.662 180.431 68.0891 180.548 68.5403C180.643 68.9175 180.664 69.3096 180.61 69.6949C180.563 70.0623 180.453 70.419 180.285 70.7493C180.113 71.0919 179.907 71.4159 179.669 71.7162L178.368 70.6823C178.532 70.4786 178.676 70.2723 178.81 70.0744C178.931 69.8803 179.015 69.6657 179.06 69.4412C179.109 69.2233 179.116 68.9978 179.079 68.7775C179.027 68.5127 178.92 68.2617 178.765 68.0406C178.602 67.7489 178.363 67.5078 178.072 67.3433C177.782 67.1789 177.452 67.0975 177.118 67.1079C176.298 67.1847 175.513 67.4802 174.844 67.9638L173.296 68.9546C172.585 69.3723 171.996 69.9706 171.59 70.6888C171.444 70.9887 171.383 71.3229 171.413 71.655C171.443 71.9872 171.564 72.3047 171.762 72.573C171.902 72.8031 172.089 73.0013 172.311 73.1549C172.494 73.2838 172.702 73.3745 172.921 73.4216C173.143 73.4612 173.369 73.4679 173.593 73.4417C173.833 73.4048 174.083 73.3595 174.336 73.2949L174.741 74.8963C174.369 74.9934 173.987 75.0514 173.603 75.0694C172.843 75.1072 172.094 74.8728 171.49 74.4083C171.13 74.1228 170.818 73.7806 170.568 73.3951V73.3951Z" fill="#EB5757"/>
<path d="M175.49 82.3332C175.116 81.6012 174.925 80.7894 174.932 79.967C174.953 79.2736 175.13 78.5937 175.449 77.9779L176.89 78.5405C176.632 79.0565 176.484 79.621 176.456 80.1977C176.446 80.7459 176.565 81.2888 176.805 81.7818C177.014 82.3068 177.399 82.7422 177.894 83.0131C178.125 83.1129 178.377 83.1592 178.629 83.1483C178.881 83.1375 179.127 83.0699 179.349 82.9505C179.539 82.8705 179.71 82.7516 179.851 82.6015C179.992 82.4514 180.1 82.2734 180.169 82.0789C180.281 81.5836 180.251 81.0668 180.082 80.5881L179.753 79.4474C179.623 79.008 179.564 78.5503 179.58 78.0922C179.595 77.7242 179.682 77.3627 179.838 77.0289C179.984 76.723 180.186 76.4473 180.434 76.2161C180.697 75.9847 180.993 75.7926 181.311 75.6461C181.699 75.4377 182.129 75.3222 182.569 75.3089C183.008 75.2955 183.445 75.3846 183.844 75.569C184.696 76.0425 185.357 76.7982 185.714 77.7066C186.051 78.3792 186.244 79.1157 186.279 79.8681C186.294 80.4995 186.148 81.1243 185.854 81.6831L184.417 81.1603C184.615 80.7409 184.731 80.2873 184.759 79.8242C184.776 79.2989 184.659 78.7781 184.421 78.31C184.231 77.8326 183.877 77.4387 183.424 77.1986C183.218 77.1013 182.991 77.0553 182.764 77.0645C182.536 77.0737 182.314 77.1378 182.116 77.2513C181.936 77.3213 181.773 77.4284 181.637 77.5658C181.501 77.7031 181.395 77.8675 181.326 78.0484C181.208 78.5493 181.237 79.0741 181.411 79.5585L181.721 80.687C181.977 81.4643 181.952 82.307 181.651 83.0682C181.344 83.7066 180.819 84.2141 180.172 84.4992C179.749 84.6986 179.292 84.8146 178.826 84.8408C178.386 84.8647 177.947 84.7798 177.548 84.5938C177.118 84.3959 176.733 84.1116 176.417 83.7586C176.035 83.3348 175.723 82.8539 175.49 82.3332V82.3332Z" fill="#EB5757"/>
<path d="M180.243 94.6976L182.776 93.0725L181.764 89.7745L178.753 89.8375L178.234 88.1426L189.539 87.9891L190.217 90.2633L180.792 96.465L180.243 94.6976ZM188.193 89.6632L188.161 89.5413L183.256 89.6579L184.076 92.3331L188.193 89.6632Z" fill="#EB5757"/>
<path d="M181.422 99.6931L192.129 98.0009L192.402 99.7122L183.142 101.184L183.916 106.067L182.477 106.298L181.422 99.6931Z" fill="#EB5757"/>
<path d="M182.848 115.782L185.739 114.919L185.677 111.463L182.768 110.687L182.737 108.919L193.619 111.904L193.657 114.28L182.887 117.639L182.848 115.782ZM191.88 113.144L191.896 113.028L187.171 111.777L187.222 114.576L191.88 113.144ZM194.429 113.245L194.91 112.192L197.724 113.543L197.042 115.01L194.429 113.245Z" fill="#EB5757"/>
<path d="M193.412 121.84L192.988 125.047C192.96 125.637 192.784 126.21 192.479 126.716C192.173 127.221 191.746 127.642 191.237 127.941C189.955 128.533 188.519 128.71 187.132 128.447C185.714 128.369 184.357 127.847 183.251 126.955C182.831 126.542 182.521 126.031 182.348 125.467C182.175 124.904 182.144 124.306 182.259 123.728L182.682 120.522L193.412 121.84ZM183.697 123.8C183.632 124.135 183.651 124.481 183.751 124.807C183.851 125.133 184.03 125.429 184.271 125.669C184.902 126.173 185.671 126.473 186.476 126.528L188.254 126.763C189.049 126.908 189.87 126.801 190.602 126.456C190.895 126.283 191.14 126.04 191.316 125.748C191.491 125.457 191.59 125.126 191.605 124.786L191.788 123.399L183.877 122.433L183.697 123.8Z" fill="#EB5757"/>
<path d="M191.18 135.34L184.737 133.627C184.302 133.511 183.912 133.43 183.55 133.353C183.23 133.283 182.899 133.276 182.575 133.332C182.303 133.385 182.055 133.524 181.868 133.728C181.641 133.991 181.485 134.308 181.414 134.648C181.303 134.983 181.279 135.341 181.345 135.687C181.407 135.957 181.553 136.199 181.762 136.379C182.01 136.583 182.295 136.737 182.602 136.833C182.948 136.957 183.334 137.067 183.759 137.181L190.202 138.894L189.756 140.569L183.624 138.947C182.963 138.776 182.315 138.559 181.685 138.299C181.201 138.102 180.767 137.8 180.413 137.416C180.099 137.057 179.902 136.61 179.848 136.136C179.79 135.511 179.853 134.881 180.035 134.28C180.176 133.669 180.431 133.091 180.788 132.576C181.057 132.194 181.437 131.902 181.876 131.74C182.373 131.58 182.901 131.535 183.419 131.611C184.095 131.689 184.764 131.82 185.42 132.003L191.553 133.625L191.18 135.34Z" fill="#EB5757"/>
<path d="M185.215 145.927L185.233 145.792L177.554 142.554L178.14 141.152L188.127 145.351L187.258 147.421L178.35 147.117L178.332 147.252L186.011 150.49L185.416 151.89L175.438 147.693L176.308 145.623L185.215 145.927Z" fill="#EB5757"/>
<path d="M176.495 156.13L175.775 154.174L172.893 152.451L173.784 150.962L183.083 156.52L182.193 158.009L177.742 155.354L177.733 155.422L178.603 157.496L180.146 161.511L179.118 163.227L177.035 157.818L169.747 157.836L170.766 156.119L176.495 156.13Z" fill="#EB5757"/>
<path d="M173.599 166.437L173.682 166.33L167.195 161.094L168.153 159.908L176.584 166.713L175.177 168.487L166.689 165.74L166.607 165.847L173.093 171.082L172.135 172.269L163.671 165.42L165.078 163.646L173.599 166.437Z" fill="#EB5757"/>
<path d="M156.908 172.198L159.501 173.746L162.003 171.382L160.617 168.7L161.911 167.49L167.015 177.569L165.285 179.192L155.568 173.462L156.908 172.198ZM164.933 177.118L165.023 177.032L162.745 172.655L160.712 174.572L164.933 177.118Z" fill="#EB5757"/>
<path d="M153.676 181.049L153.806 178.96L151.868 176.226L153.292 175.218L159.537 184.067L158.142 185.078L155.151 180.842L155.087 180.883L155.046 183.121L154.83 187.423L153.188 188.529L153.47 182.688L146.833 179.705L148.451 178.557L153.676 181.049Z" fill="#EB5757"/>
<path d="M141.149 187.87C130.347 193.02 118.543 195.715 106.583 195.76C94.6227 195.805 82.8015 193.201 71.9661 188.133" stroke="#EB5757" stroke-miterlimit="10"/>
</g>
<path d="M78.0534 109.066L74.3542 99.362L80.2226 97.1251L80.7208 98.432L76.3564 100.096L77.4323 102.918L81.6355 101.316L82.1336 102.623L77.9304 104.225L79.0593 107.186L83.4236 105.523L83.9218 106.829L78.0534 109.066Z" fill="#EB5757"/>
<path d="M88.9622 105.099C88.1475 105.41 87.4061 105.522 86.738 105.437C86.0699 105.352 85.4632 105.133 84.9178 104.778L85.519 103.45C86.0467 103.758 86.5526 103.942 87.0367 104.002C87.5173 104.052 88.0127 103.98 88.523 103.786C89.1139 103.56 89.513 103.249 89.7203 102.852C89.9366 102.451 89.9459 101.991 89.748 101.472C89.589 101.055 89.3507 100.779 89.0332 100.645C88.7121 100.502 88.2501 100.487 87.6472 100.601L86.5631 100.823C86.0872 100.919 85.6652 100.942 85.2972 100.891C84.9257 100.831 84.6018 100.721 84.3255 100.561C84.0456 100.392 83.8062 100.18 83.6071 99.9272C83.4135 99.6613 83.2548 99.3662 83.1312 99.0418C82.7814 98.1242 82.8029 97.3198 83.1957 96.6287C83.5849 95.9283 84.2808 95.387 85.2835 95.0048C86.0266 94.7216 86.7054 94.6061 87.3201 94.6584C87.9401 94.6981 88.4961 94.8789 88.988 95.201L88.4189 96.5325C88.0357 96.3071 87.6279 96.1653 87.1956 96.1072C86.7687 96.0363 86.2956 96.0999 85.7764 96.2978C85.2213 96.5094 84.8438 96.7966 84.6438 97.1595C84.4491 97.5097 84.4419 97.9211 84.6221 98.3938C84.774 98.7924 85.0061 99.0649 85.3182 99.2113C85.6358 99.345 86.1049 99.3519 86.7257 99.2321L87.7883 99.034C88.6899 98.8708 89.4251 98.9568 89.9938 99.292C90.5589 99.618 90.9722 100.124 91.2336 100.81C91.4032 101.255 91.4826 101.692 91.4717 102.12C91.4698 102.546 91.3706 102.944 91.1741 103.317C90.9866 103.685 90.7062 104.026 90.333 104.338C89.9652 104.637 89.5083 104.891 88.9622 105.099Z" fill="#EB5757"/>
<path d="M100.415 100.542L93.6471 103.122L93.1224 101.746L95.3744 92.8461L90.6341 94.6531L90.1359 93.3462L96.528 90.9096L97.0527 92.286L94.8007 101.186L99.917 99.2354L100.415 100.542Z" fill="#EB5757"/>
<path d="M102.634 90.0788L105.835 98.4763L104.331 99.0496L101.13 90.6521L98.1892 91.7732L97.691 90.4663L105.077 87.6509L105.575 88.9578L102.634 90.0788Z" fill="#EB5757"/>
<path d="M110.261 96.7891L106.562 87.0847L112.431 84.8478L112.929 86.1546L108.564 87.8183L109.64 90.6406L113.843 89.0384L114.342 90.3453L110.138 91.9475L111.267 94.9089L115.632 93.2452L116.13 94.5521L110.261 96.7891Z" fill="#EB5757"/>
<path d="M119.777 93.1618L118.286 93.73L114.587 84.0256L118.092 82.6896C118.987 82.3483 119.767 82.3485 120.43 82.6901C121.102 83.0283 121.612 83.6515 121.958 84.5599C122.241 85.3014 122.299 85.9796 122.134 86.5947C121.968 87.2098 121.58 87.6975 120.969 88.0578L124.679 91.2934L123.013 91.9281L119.531 88.7651L118.283 89.2411L119.777 93.1618ZM119.605 87.3039C120.536 86.949 120.834 86.3313 120.498 85.4507L120.27 84.8529C119.935 83.9724 119.301 83.7096 118.37 84.0645L116.571 84.7504L117.806 87.9898L119.605 87.3039Z" fill="#EB5757"/>
<path d="M101.131 121.221L97.4315 111.517L103.3 109.28L103.798 110.587L99.4337 112.25L100.51 115.073L104.713 113.471L105.211 114.777L101.008 116.38L102.137 119.341L106.501 117.677L106.999 118.984L101.131 121.221ZM100.236 109.636L99.1671 109.534L99.4352 106.565L100.941 106.724L100.236 109.636Z" fill="#EB5757"/>
<path d="M112.039 117.254C111.225 117.565 110.483 117.677 109.815 117.592C109.147 117.507 108.54 117.287 107.995 116.933L108.596 115.605C109.124 115.913 109.63 116.097 110.114 116.157C110.595 116.207 111.09 116.135 111.6 115.941C112.191 115.715 112.59 115.404 112.798 115.006C113.014 114.606 113.023 114.146 112.825 113.627C112.666 113.209 112.428 112.934 112.11 112.8C111.789 112.657 111.327 112.642 110.725 112.755L109.64 112.978C109.164 113.074 108.742 113.097 108.375 113.046C108.003 112.986 107.679 112.876 107.403 112.716C107.123 112.547 106.883 112.335 106.684 112.082C106.491 111.816 106.332 111.521 106.208 111.197C105.859 110.279 105.88 109.475 106.273 108.784C106.662 108.083 107.358 107.542 108.361 107.16C109.104 106.876 109.783 106.761 110.397 106.813C111.017 106.853 111.573 107.034 112.065 107.356L111.496 108.687C111.113 108.462 110.705 108.32 110.273 108.262C109.846 108.191 109.373 108.255 108.854 108.453C108.299 108.664 107.921 108.952 107.721 109.314C107.526 109.665 107.519 110.076 107.699 110.549C107.851 110.947 108.083 111.22 108.395 111.366C108.713 111.5 109.182 111.507 109.803 111.387L110.866 111.189C111.767 111.026 112.502 111.112 113.071 111.447C113.636 111.773 114.049 112.279 114.311 112.965C114.481 113.41 114.56 113.846 114.549 114.275C114.547 114.701 114.448 115.099 114.251 115.471C114.064 115.84 113.783 116.181 113.41 116.493C113.042 116.792 112.586 117.046 112.039 117.254Z" fill="#EB5757"/>
<path d="M97.7923 132.331L100.5 139.436C100.659 139.853 100.733 140.26 100.72 140.657C100.717 141.052 100.631 141.419 100.463 141.759C100.304 142.095 100.071 142.397 99.7621 142.663C99.4534 142.929 99.0798 143.146 98.6411 143.313C97.8175 143.627 97.0782 143.665 96.4233 143.426C95.7773 143.184 95.2396 142.715 94.8102 142.019L96.1171 141.17C96.3496 141.538 96.6289 141.814 96.9552 141.997C97.2815 142.181 97.6819 142.182 98.1563 142.001C98.595 141.834 98.884 141.57 99.0232 141.209C99.1679 140.835 99.1325 140.366 98.917 139.8L96.7865 134.211L93.5233 135.455L93.0251 134.148L97.7923 132.331Z" fill="#EB5757"/>
<path d="M107.015 140.121C106.424 140.346 105.867 140.431 105.344 140.376C104.826 140.308 104.342 140.115 103.893 139.798C103.453 139.478 103.048 139.032 102.677 138.463C102.306 137.893 101.968 137.209 101.664 136.412C101.364 135.624 101.163 134.894 101.06 134.222C100.954 133.541 100.959 132.934 101.074 132.402C101.198 131.866 101.432 131.405 101.777 131.019C102.128 130.62 102.598 130.308 103.189 130.083C103.78 129.858 104.334 129.779 104.852 129.847C105.376 129.902 105.858 130.09 106.298 130.411C106.747 130.728 107.158 131.176 107.533 131.755C107.904 132.325 108.24 133.004 108.54 133.791C108.844 134.589 109.047 135.323 109.149 135.995C109.252 136.668 109.241 137.271 109.117 137.807C109.002 138.339 108.769 138.805 108.419 139.204C108.074 139.59 107.606 139.896 107.015 140.121ZM106.522 138.828C107.194 138.572 107.569 138.132 107.649 137.507C107.725 136.873 107.592 136.106 107.249 135.207L106.629 133.58C106.29 132.69 105.883 132.039 105.407 131.626C104.928 131.203 104.353 131.12 103.682 131.376C103.01 131.632 102.637 132.077 102.56 132.711C102.481 133.336 102.611 134.093 102.95 134.983L103.575 136.623C103.914 137.513 104.323 138.169 104.802 138.592C105.278 139.005 105.851 139.084 106.522 138.828Z" fill="#EB5757"/>
<path d="M118.388 135.595L111.62 138.175L111.095 136.798L113.347 127.899L108.607 129.706L108.109 128.399L114.501 125.962L115.025 127.338L112.773 136.238L117.89 134.288L118.388 135.595Z" fill="#EB5757"/>
<path d="M123.039 134.013C122.224 134.323 121.483 134.436 120.815 134.351C120.146 134.266 119.54 134.046 118.994 133.692L119.596 132.364C120.123 132.672 120.629 132.856 121.113 132.916C121.594 132.966 122.089 132.894 122.6 132.699C123.19 132.474 123.59 132.163 123.797 131.765C124.013 131.364 124.022 130.904 123.825 130.385C123.666 129.968 123.427 129.693 123.11 129.559C122.789 129.416 122.327 129.401 121.724 129.514L120.64 129.736C120.164 129.833 119.742 129.856 119.374 129.805C119.002 129.745 118.678 129.635 118.402 129.475C118.122 129.305 117.883 129.094 117.684 128.841C117.49 128.575 117.331 128.28 117.208 127.956C116.858 127.038 116.879 126.234 117.272 125.542C117.661 124.842 118.357 124.301 119.36 123.919C120.103 123.635 120.782 123.52 121.397 123.572C122.017 123.612 122.573 123.793 123.065 124.115L122.495 125.446C122.112 125.221 121.704 125.079 121.272 125.021C120.845 124.95 120.372 125.014 119.853 125.212C119.298 125.423 118.92 125.71 118.72 126.073C118.526 126.423 118.518 126.835 118.699 127.308C118.851 127.706 119.083 127.979 119.395 128.125C119.712 128.259 120.181 128.266 120.802 128.146L121.865 127.948C122.766 127.785 123.502 127.871 124.07 128.206C124.635 128.532 125.049 129.038 125.31 129.724C125.48 130.168 125.559 130.605 125.548 131.034C125.546 131.459 125.447 131.858 125.251 132.23C125.063 132.599 124.783 132.939 124.41 133.252C124.042 133.551 123.585 133.805 123.039 134.013Z" fill="#EB5757"/>
<path d="M127.286 120.276L126.217 120.174L126.485 117.206L127.991 117.364L127.286 120.276ZM131.171 130.913C130.58 131.138 130.023 131.223 129.5 131.168C128.982 131.1 128.498 130.907 128.049 130.59C127.609 130.27 127.204 129.825 126.833 129.255C126.462 128.685 126.124 128.001 125.82 127.204C125.52 126.416 125.319 125.686 125.216 125.014C125.11 124.333 125.115 123.726 125.23 123.194C125.354 122.658 125.588 122.197 125.933 121.811C126.283 121.412 126.754 121.1 127.345 120.875C127.936 120.65 128.49 120.571 129.008 120.639C129.532 120.694 130.014 120.882 130.454 121.203C130.903 121.52 131.314 121.968 131.689 122.547C132.06 123.117 132.396 123.796 132.696 124.583C133 125.381 133.203 126.115 133.305 126.787C133.408 127.46 133.397 128.063 133.273 128.599C133.158 129.131 132.925 129.597 132.575 129.996C132.23 130.382 131.762 130.688 131.171 130.913ZM130.678 129.62C131.35 129.364 131.725 128.924 131.805 128.299C131.881 127.665 131.748 126.898 131.405 125.999L130.785 124.372C130.446 123.483 130.039 122.831 129.563 122.418C129.084 121.995 128.509 121.912 127.838 122.168C127.166 122.424 126.793 122.869 126.716 123.503C126.637 124.128 126.767 124.885 127.106 125.775L127.731 127.415C128.07 128.305 128.479 128.961 128.958 129.384C129.434 129.797 130.007 129.876 130.678 129.62Z" fill="#EB5757"/>
<defs>
<clipPath id="clip0_4_162">
<rect width="173.083" height="180.879" fill="white" transform="translate(6.01208 183.717) rotate(-82.4797)"/>
</clipPath>
</defs>
</svg>
